ffmpeg version N-92341-g66425add27 Copyright (c) 2000-2018 the FFmpeg developers
  built with gcc 8.2.1 (GCC) 20181017
  configuration: --enable-gpl --enable-version3 --enable-sdl2 --enable-fontconfig --enable-gnutls --enable-iconv --enable-libass --enable-libbluray --enable-libfreetype --enable-libmp3lame --enable-libopencore-amrnb --enable-libopencore-amrwb --enable-libopenjpeg --enable-libopus --enable-libshine --enable-libsnappy --enable-libsoxr --enable-libtheora --enable-libtwolame --enable-libvpx --enable-libwavpack --enable-libwebp --enable-libx264 --enable-libx265 --enable-libxml2 --enable-libzimg --enable-lzma --enable-zlib --enable-gmp --enable-libvidstab --enable-libvorbis --enable-libvo-amrwbenc --enable-libmysofa --enable-libspeex --enable-libxvid --enable-libaom --enable-libmfx --enable-amf --enable-ffnvcodec --enable-cuvid --enable-d3d11va --enable-nvenc --enable-nvdec --enable-dxva2 --enable-avisynth
  libavutil      56. 23.100 / 56. 23.100
  libavcodec     58. 36.100 / 58. 36.100
  libavformat    58. 21.100 / 58. 21.100
  libavdevice    58.  6.100 / 58.  6.100
  libavfilter     7. 43.100 /  7. 43.100
  libswscale      5.  4.100 /  5.  4.100
  libswresample   3.  4.100 /  3.  4.100
  libpostproc    55.  4.100 / 55.  4.100
Splitting the commandline.
Reading option '-v' ... matched as option 'v' (set logging level) with argument 'debug'.
Reading option '-nostdin' ... matched as option 'stdin' (enable or disable interaction on standard input) with argument 0.
Reading option '-progress' ... matched as option 'progress' (write program-readable progress information) with argument 'C:/Users/Fabian/AppData/Local/Temp/KritaFFmpegProgress.PQ9612'.
Reading option '-r' ... matched as option 'r' (set frame rate (Hz value, fraction or abbreviation)) with argument '24'.
Reading option '-start_number' ... matched as AVOption 'start_number' with argument '0'.
Reading option '-i' ... matched as input url with argument 'D:/Games/Unity/UnityGame/Game1/Assets/Scenes/Textures/frame%04d.png'.
Reading option '-vf' ... matched as option 'vf' (set video filters) with argument 'palettegen'.
Reading option '-y' ... matched as option 'y' (overwrite output files) with argument '1'.
Reading option 'D:/Games/Unity/UnityGame/Game1/Assets/Scenes/Textures/palette.png' ... matched as output url.
Finished splitting the commandline.
Parsing a group of options: global .
Applying option v (set logging level) with argument debug.
Applying option nostdin (enable or disable interaction on standard input) with argument 0.
Applying option progress (write program-readable progress information) with argument C:/Users/Fabian/AppData/Local/Temp/KritaFFmpegProgress.PQ9612.
[file @ 000001531cd9a9c0] Setting default whitelist 'file,crypto'
Applying option y (overwrite output files) with argument 1.
Successfully parsed a group of options.
Parsing a group of options: input url D:/Games/Unity/UnityGame/Game1/Assets/Scenes/Textures/frame%04d.png.
Applying option r (set frame rate (Hz value, fraction or abbreviation)) with argument 24.
Successfully parsed a group of options.
Opening an input file: D:/Games/Unity/UnityGame/Game1/Assets/Scenes/Textures/frame%04d.png.
[image2 @ 000001531cddb540] Opening 'D:/Games/Unity/UnityGame/Game1/Assets/Scenes/Textures/frame0000.png' for reading
[file @ 000001531cddebc0] Setting default whitelist 'file,crypto'
[AVIOContext @ 000001531cde6d40] Statistics: 227438 bytes read, 0 seeks
[image2 @ 000001531cddb540] Opening 'D:/Games/Unity/UnityGame/Game1/Assets/Scenes/Textures/frame0001.png' for reading
[file @ 000001531ce1e900] Setting default whitelist 'file,crypto'
[AVIOContext @ 000001531ce1ea00] Statistics: 244887 bytes read, 0 seeks
[image2 @ 000001531cddb540] Opening 'D:/Games/Unity/UnityGame/Game1/Assets/Scenes/Textures/frame0002.png' for reading
[file @ 000001531ce1e9c0] Setting default whitelist 'file,crypto'
[AVIOContext @ 000001531cde6b00] Statistics: 208873 bytes read, 0 seeks
[image2 @ 000001531cddb540] Opening 'D:/Games/Unity/UnityGame/Game1/Assets/Scenes/Textures/frame0003.png' for reading
[file @ 000001531cde6b00] Setting default whitelist 'file,crypto'
[AVIOContext @ 000001531cde6cc0] Statistics: 289187 bytes read, 0 seeks
[image2 @ 000001531cddb540] Opening 'D:/Games/Unity/UnityGame/Game1/Assets/Scenes/Textures/frame0004.png' for reading
[file @ 000001531cde6cc0] Setting default whitelist 'file,crypto'
[AVIOContext @ 000001531cddec40] Statistics: 278363 bytes read, 0 seeks
[image2 @ 000001531cddb540] Opening 'D:/Games/Unity/UnityGame/Game1/Assets/Scenes/Textures/frame0005.png' for reading
[file @ 000001531cddec40] Setting default whitelist 'file,crypto'
[AVIOContext @ 000001531cddee00] Statistics: 262968 bytes read, 0 seeks
[image2 @ 000001531cddb540] Opening 'D:/Games/Unity/UnityGame/Game1/Assets/Scenes/Textures/frame0006.png' for reading
[file @ 000001531cddee00] Setting default whitelist 'file,crypto'
[AVIOContext @ 000001531cddefc0] Statistics: 296904 bytes read, 0 seeks
[image2 @ 000001531cddb540] Opening 'D:/Games/Unity/UnityGame/Game1/Assets/Scenes/Textures/frame0007.png' for reading
[file @ 000001531cddefc0] Setting default whitelist 'file,crypto'
[AVIOContext @ 000001531cddf180] Statistics: 287808 bytes read, 0 seeks
[image2 @ 000001531cddb540] Opening 'D:/Games/Unity/UnityGame/Game1/Assets/Scenes/Textures/frame0008.png' for reading
[file @ 000001531cddf180] Setting default whitelist 'file,crypto'
[AVIOContext @ 000001531cddf340] Statistics: 428066 bytes read, 0 seeks
[image2 @ 000001531cddb540] Opening 'D:/Games/Unity/UnityGame/Game1/Assets/Scenes/Textures/frame0009.png' for reading
[file @ 000001531cddf340] Setting default whitelist 'file,crypto'
[AVIOContext @ 000001531cddfd40] Statistics: 300790 bytes read, 0 seeks
[image2 @ 000001531cddb540] Opening 'D:/Games/Unity/UnityGame/Game1/Assets/Scenes/Textures/frame0010.png' for reading
[file @ 000001531cddfd40] Setting default whitelist 'file,crypto'
[AVIOContext @ 000001531cddfe40] Statistics: 324376 bytes read, 0 seeks
[image2 @ 000001531cddb540] Opening 'D:/Games/Unity/UnityGame/Game1/Assets/Scenes/Textures/frame0011.png' for reading
[file @ 000001531cddfdc0] Setting default whitelist 'file,crypto'
[AVIOContext @ 000001531cddfec0] Statistics: 340245 bytes read, 0 seeks
[image2 @ 000001531cddb540] Opening 'D:/Games/Unity/UnityGame/Game1/Assets/Scenes/Textures/frame0012.png' for reading
[file @ 000001531cddfdc0] Setting default whitelist 'file,crypto'
[AVIOContext @ 000001531cddfec0] Statistics: 337956 bytes read, 0 seeks
[image2 @ 000001531cddb540] Opening 'D:/Games/Unity/UnityGame/Game1/Assets/Scenes/Textures/frame0013.png' for reading
[file @ 000001531cddfdc0] Setting default whitelist 'file,crypto'
[AVIOContext @ 000001531cddfec0] Statistics: 367086 bytes read, 0 seeks
[image2 @ 000001531cddb540] Opening 'D:/Games/Unity/UnityGame/Game1/Assets/Scenes/Textures/frame0014.png' for reading
[file @ 000001531cddfdc0] Setting default whitelist 'file,crypto'
[AVIOContext @ 000001531cddfec0] Statistics: 335969 bytes read, 0 seeks
[image2 @ 000001531cddb540] Opening 'D:/Games/Unity/UnityGame/Game1/Assets/Scenes/Textures/frame0015.png' for reading
[file @ 000001531cddfdc0] Setting default whitelist 'file,crypto'
[AVIOContext @ 000001531cddfec0] Statistics: 271661 bytes read, 0 seeks
Input #0, image2, from 'D:/Games/Unity/UnityGame/Game1/Assets/Scenes/Textures/frame%04d.png':
  Duration: 00:00:00.64, start: 0.000000, bitrate: N/A
    Stream #0:0, 16, 1/25: Video: png, 1 reference frame, rgba(pc), 1920x1080 [SAR 11811:11811 DAR 16:9], 0/1, 25 fps, 25 tbr, 25 tbn, 25 tbc
Successfully opened the file.
Parsing a group of options: output url D:/Games/Unity/UnityGame/Game1/Assets/Scenes/Textures/palette.png.
Applying option vf (set video filters) with argument palettegen.
Successfully parsed a group of options.
Opening an output file: D:/Games/Unity/UnityGame/Game1/Assets/Scenes/Textures/palette.png.
Successfully opened the file.
detected 4 logical cores
Stream mapping:
  Stream #0:0 -> #0:0 (png (native) -> png (native))
cur_dts is invalid (this is harmless if it occurs once at the start per stream)
    Last message repeated 4 times
[graph 0 input from stream 0:0 @ 000001531cde6c40] Setting 'video_size' to value '1920x1080'
[graph 0 input from stream 0:0 @ 000001531cde6c40] Setting 'pix_fmt' to value '26'
[graph 0 input from stream 0:0 @ 000001531cde6c40] Setting 'time_base' to value '1/24'
[graph 0 input from stream 0:0 @ 000001531cde6c40] Setting 'pixel_aspect' to value '11811/11811'
[graph 0 input from stream 0:0 @ 000001531cde6c40] Setting 'sws_param' to value 'flags=2'
[graph 0 input from stream 0:0 @ 000001531cde6c40] Setting 'frame_rate' to value '24/1'
[graph 0 input from stream 0:0 @ 000001531cde6c40] w:1920 h:1080 pixfmt:rgba tb:1/24 fr:24/1 sar:11811/11811 sws_param:flags=2
[format @ 000001531cde62c0] Setting 'pix_fmts' to value 'rgb24|rgba|rgb48be|rgba64be|pal8|gray|ya8|gray16be|ya16be|monob'
[auto_scaler_0 @ 000001531dbaecc0] Setting 'flags' to value 'bicubic'
[auto_scaler_0 @ 000001531dbaecc0] w:iw h:ih flags:'bicubic' interl:0
[Parsed_palettegen_0 @ 000001531cde6a80] auto-inserting filter 'auto_scaler_0' between the filter 'graph 0 input from stream 0:0' and the filter 'Parsed_palettegen_0'
[auto_scaler_1 @ 000001531ddf7140] Setting 'flags' to value 'bicubic'
[auto_scaler_1 @ 000001531ddf7140] w:iw h:ih flags:'bicubic' interl:0
[format @ 000001531cde62c0] auto-inserting filter 'auto_scaler_1' between the filter 'Parsed_palettegen_0' and the filter 'format'
[AVFilterGraph @ 000001531dc9be80] query_formats: 4 queried, 1 merged, 2 already done, 0 delayed
[auto_scaler_1 @ 000001531ddf7140] picking rgba out of 10 ref:bgra alpha:1
[swscaler @ 000001531debd380] Forcing full internal H chroma due to input having non subsampled chroma
[auto_scaler_0 @ 000001531dbaecc0] w:1920 h:1080 fmt:rgba sar:11811/11811 -> w:1920 h:1080 fmt:bgra sar:1/1 flags:0x4
[swscaler @ 000001531ded3b40] Forcing full internal H chroma due to input having non subsampled chroma
[auto_scaler_1 @ 000001531ddf7140] w:16 h:16 fmt:bgra sar:1/1 -> w:16 h:16 fmt:rgba sar:1/1 flags:0x4
Output #0, image2, to 'D:/Games/Unity/UnityGame/Game1/Assets/Scenes/Textures/palette.png':
  Metadata:
    encoder         : Lavf58.21.100
    Stream #0:0, 0, 1/24: Video: png, 1 reference frame, rgba, 16x16 [SAR 1:1 DAR 1:1], 0/1, q=2-31, 200 kb/s, 24 fps, 24 tbn, 24 tbc
    Metadata:
      encoder         : Lavc58.36.100 png
cur_dts is invalid (this is harmless if it occurs once at the start per stream)
    Last message repeated 15 times
[Parsed_palettegen_0 @ 000001531cde6a80] 255(+1) colors generated out of 511 colors; ratio=0.499022
[Parsed_palettegen_0 @ 000001531cde6a80] Dupped color: FFC78600
    Last message repeated 145 times
[Parsed_palettegen_0 @ 000001531cde6a80] Dupped color: FFC78601
    Last message repeated 105 times
cur_dts is invalid (this is harmless if it occurs once at the start per stream)
Clipping frame in rate conversion by 0.000008
cur_dts is invalid (this is harmless if it occurs once at the start per stream)
[out_0_0 @ 000001531ce26e40] EOF on sink link out_0_0:default.
No more output streams to write to, finishing.
[image2 @ 000001531cdddb80] Opening 'D:/Games/Unity/UnityGame/Game1/Assets/Scenes/Textures/palette.png' for writing
[file @ 000001531ddf8a40] Setting default whitelist 'file,crypto'
[AVIOContext @ 0000015320844100] Statistics: 0 seeks, 1 writeouts
frame=    1 fps=0.0 q=-0.0 Lsize=N/A time=00:00:00.04 bitrate=N/A speed=0.164x    
[AVIOContext @ 000001531cddb400] Statistics: 0 seeks, 1 writeouts
video:0kB audio:0kB subtitle:0kB other streams:0kB global headers:0kB muxing overhead: unknown
Input file #0 (D:/Games/Unity/UnityGame/Game1/Assets/Scenes/Textures/frame%04d.png):
  Input stream #0:0 (video): 16 packets read (4802577 bytes); 16 frames decoded; 
  Total: 16 packets (4802577 bytes) demuxed
Output file #0 (D:/Games/Unity/UnityGame/Game1/Assets/Scenes/Textures/palette.png):
  Output stream #0:0 (video): 1 frames encoded; 1 packets muxed (118 bytes); 
  Total: 1 packets (118 bytes) muxed
16 frames successfully decoded, 0 decoding errors
